<svg width="192" height="192" viewBox="0 0 192 192" fill="none" xmlns="http://www.w3.org/2000/svg">
<circle cx="96" cy="96" r="95.5" fill="#F1FFE2" stroke="#F1FFE2"/>
<path d="M38.9333 118.4V119.9H39.5547L39.994 119.461L38.9333 118.4ZM45.8667 111.467V109.967H45.2454L44.806 110.406L45.8667 111.467ZM62.9333 111.467V112.967H63.6833L64.1333 112.367L62.9333 111.467ZM69.3333 102.933V101.433H68.5833L68.1333 102.033L69.3333 102.933ZM86.4 102.933V104.433H87.0213L87.4607 103.994L86.4 102.933ZM92.8 96.5333V95.0333H92.1787L91.7393 95.4727L92.8 96.5333ZM108.8 96.5333V98.0333H109.534L109.984 97.4542L108.8 96.5333ZM116.267 86.9333V85.4333H115.533L115.083 86.0124L116.267 86.9333ZM133.333 86.9333V88.4333H134.299L134.699 87.554L133.333 86.9333ZM138.667 75.2V73.7H137.701L137.301 74.5793L138.667 75.2ZM145.6 75.2V76.7H146.109L146.513 76.3904L145.6 75.2ZM161.6 62.9333L144.427 65.187L154.965 78.9326L161.6 62.9333ZM27.7333 119.9H38.9333V116.9H27.7333V119.9ZM39.994 119.461L46.9273 112.527L44.806 110.406L37.8727 117.339L39.994 119.461ZM45.8667 112.967H62.9333V109.967H45.8667V112.967ZM64.1333 112.367L70.5333 103.833L68.1333 102.033L61.7333 110.567L64.1333 112.367ZM69.3333 104.433H86.4V101.433H69.3333V104.433ZM87.4607 103.994L93.8607 97.594L91.7393 95.4727L85.3393 101.873L87.4607 103.994ZM92.8 98.0333H108.8V95.0333H92.8V98.0333ZM109.984 97.4542L117.451 87.8542L115.083 86.0124L107.616 95.6124L109.984 97.4542ZM116.267 88.4333H133.333V85.4333H116.267V88.4333ZM134.699 87.554L140.032 75.8207L137.301 74.5793L131.968 86.3126L134.699 87.554ZM138.667 76.7H145.6V73.7H138.667V76.7ZM146.513 76.3904L154.513 70.2571L152.687 67.8762L144.687 74.0096L146.513 76.3904Z" fill="#3DC23A"/>
<path d="M67.7333 180.267H52.2666L53.3333 180.8L67.7333 186.667V180.267Z" fill="#3DC23A" stroke="#3DC23A"/>
<path d="M51.2 132.267H68.2667V180.267H51.2V132.267Z" fill="#3DC23A"/>
<path d="M91.1999 188.8H76.2666L78.9333 189.333L91.1999 190.933V188.8Z" fill="#3DC23A" stroke="#3DC23A"/>
<path d="M74.6667 122.667H91.7334V188.8H74.6667V122.667Z" fill="#3DC23A"/>
<path d="M98.1333 116.267H115.2V189.867H98.1333V116.267Z" fill="#3DC23A"/>
<path d="M98.6666 189.867H111.467L106.667 190.4L98.6666 190.933V189.867Z" fill="#3DC23A" stroke="#3DC23A"/>
<path d="M121.6 106.667H138.667V181.333H121.6V106.667Z" fill="#3DC23A"/>
<path d="M122.133 180.8H137.6V181.333L134.4 182.933L122.133 187.733V180.8Z" fill="#3DC23A" stroke="#3DC23A"/>
<path d="M145.067 94.9333H162.133V165.333H145.067V94.9333Z" fill="#3DC23A"/>
<path d="M145.6 165.333H161.067L156.8 169.067L149.867 174.933L145.6 177.6V165.333Z" fill="#3DC23A" stroke="#3DC23A"/>
<path d="M114.648 189.874C114.511 189.874 114.414 189.9 114.284 189.939C114.186 189.968 114.027 190.046 114.223 189.98C114.251 189.97 114.534 189.915 114.401 189.939C114.355 189.947 113.999 189.973 114.006 190.005C114.015 190.045 114.235 190.042 114.229 190.047C114.151 190.108 114.016 190.077 113.954 190.164C113.952 190.167 114.015 190.141 114.025 190.137C114.051 190.127 114.134 190.117 114.106 190.117C114.023 190.117 113.923 190.124 113.847 190.162C113.828 190.172 113.857 190.177 113.864 190.177C113.9 190.177 113.793 190.177 113.757 190.177C113.687 190.177 113.629 190.188 113.559 190.202C113.458 190.223 113.361 190.241 113.26 190.26C113.037 190.3 112.838 190.36 112.603 190.36" stroke="#3DC23A" stroke-width="0.25" stroke-linecap="round"/>
<path d="M115.053 189.813C115.053 189.94 115.05 189.913 114.992 189.985C114.975 190.006 114.898 190.016 114.871 190.016C114.778 190.016 114.618 190.041 114.537 190.086C114.486 190.114 114.391 190.067 114.349 190.101C114.329 190.117 114.258 190.137 114.232 190.137C114.101 190.137 113.993 190.198 113.859 190.198" stroke="#3DC23A" stroke-width="0.25" stroke-linecap="round"/>
<path d="M162.239 165.486C157.297 170.198 151.866 174.368 146.039 177.927L145.493 177.034C151.257 173.513 156.629 169.388 161.517 164.728L162.239 165.486Z" fill="#3DC23A"/>
<path d="M162.239 165.486C157.297 170.198 151.866 174.368 146.039 177.927L145.493 177.034C151.257 173.513 156.629 169.388 161.517 164.728L162.239 165.486Z" fill="#3DC23A"/>
<path d="M139.003 181.83C133.76 184.457 128.288 186.597 122.655 188.225L122.364 187.219C127.936 185.609 133.348 183.492 138.534 180.894L139.003 181.83Z" fill="#3DC23A"/>
<path d="M115.142 190.072C109.571 191.206 103.911 191.842 98.2277 191.974L98.2034 190.927C103.825 190.797 109.423 190.167 114.933 189.046L115.142 190.072Z" fill="#3DC23A"/>
<path d="M91.6953 191.903C85.9416 191.645 80.2229 190.87 74.6083 189.586L74.8416 188.565C80.395 189.835 86.0513 190.602 91.7422 190.857L91.6953 191.903Z" fill="#3DC23A"/>
<path d="M67.9412 187.808C62.1243 186.03 56.4894 183.704 51.1127 180.859L51.6023 179.934C56.9204 182.747 62.4938 185.048 68.2473 186.807L67.9412 187.808Z" fill="#3DC23A"/>
<path d="M27.7333 139.733H44.8V162.133H27.7333V139.733Z" fill="#3DC23A"/>
<path d="M44.2667 162.133H27.7333L28.2667 162.667L44.2667 176V162.133Z" fill="#3DC23A" stroke="#3DC23A"/>
<path d="M44.2272 176.843C38.2254 172.999 32.6704 168.499 27.6647 163.426L28.41 162.691C33.3611 167.709 38.8556 172.159 44.7919 175.961L44.2272 176.843Z" fill="#3DC23A"/>
<path d="M27.7334 163.2V161.6H26.1334L27.7334 163.2Z" fill="#E1FFC3" stroke="#E1FFC3" stroke-width="0.01"/>
</svg>
